<svg width="375" height="100" viewBox="0 0 375 100" fill="none" xmlns="http://www.w3.org/2000/svg">
    <path fill-rule="evenodd" clip-rule="evenodd" d="M17.2965 26.6214C19.0383 27.9823 20.8477 29.1691 22.7393 30.1919C23.8238 27.2695 25.1145 24.5636 26.5817 22.1282C27.6668 20.327 28.8632 18.6533 30.1586 17.143C25.2319 19.3855 20.8605 22.6309 17.2965 26.6214ZM46.2073 8.80347C32.2828 8.80347 19.9239 15.301 11.9364 25.4222C6.0224 32.916 2.5 42.4008 2.5 52.7057C2.5 76.9075 22.0661 96.5391 46.2335 96.6079C46.276 96.6082 46.3185 96.6084 46.361 96.6084C46.4047 96.6084 46.4483 96.6082 46.4919 96.6079C59.2231 96.567 71.1826 90.5587 79.2138 81.8603L79.2227 81.868L79.569 81.471C79.8939 81.1107 80.2121 80.7459 80.5233 80.3769L82.4291 78.1918L80.5828 76.5814L80.5819 76.5806C71.2545 68.4528 59.9776 65.1935 46.361 65.1935C38.6606 65.1935 31.8785 66.1616 25.7526 68.4733C24.4844 63.6647 23.7683 58.335 23.7683 52.7059C23.7683 47.0639 24.4776 41.7231 25.7362 36.9067C31.8423 39.2076 38.6019 40.2178 46.2073 40.2178H48.6464V8.80347H46.2073ZM43.7683 13.9241C39.0169 14.8698 34.4258 18.5606 30.76 24.6455C29.3996 26.9037 28.1946 29.453 27.1847 32.2381C32.0964 34.1314 37.5557 35.1043 43.7683 35.3017V13.9241ZM21.2223 34.907C18.8077 33.6669 16.4984 32.1899 14.2803 30.4554C10.3567 36.1403 7.90018 42.9262 7.45224 50.2667L18.9317 50.2669C19.1165 44.8387 19.9146 39.6561 21.2223 34.907ZM18.9322 55.1449L7.45295 55.1447C7.90519 62.4866 10.3851 69.2787 14.3389 74.9673C16.5522 73.2105 18.8475 71.7243 21.2431 70.4826C19.9252 65.7399 19.1191 60.5651 18.9322 55.1449ZM22.7726 75.1951C20.8978 76.2201 19.1019 77.4144 17.3669 78.7918C20.9401 82.769 25.3181 86.0071 30.2441 88.2491C28.9489 86.7462 27.7511 85.082 26.6632 83.2914C25.1782 80.8473 23.8709 78.1303 22.7726 75.1951ZM62.0747 88.278C67.19 85.9827 71.7916 82.6662 75.4853 78.7072C73.5449 77.2129 71.506 75.9296 69.3573 74.8443C67.5114 80.069 65.057 84.6663 62.0747 88.278ZM64.8637 72.9172C60.0559 71.195 54.7357 70.2986 48.8 70.1097V91.4861C51.8105 90.8776 54.6784 89.1378 57.2971 86.3308C60.3207 83.0899 62.9278 78.5017 64.8637 72.9172ZM43.922 91.4883V70.1071C37.6145 70.2952 32.1342 71.2381 27.2128 73.1377C28.2352 75.9336 29.4553 78.4924 30.8321 80.7586C34.5312 86.8469 39.157 90.5426 43.922 91.4883Z" fill="white"/>
    <path d="M43.9634 66.4874C45.2337 59.2367 48.3342 52.2942 53.4327 45.2776C57.0581 40.2884 61.5869 35.7147 67.6825 30.8854C71.4874 27.8747 78.0083 22.7664 81.2318 20.023C77.4269 26.0737 70.1235 33.1684 66.4474 37.1079C62.7264 41.0962 59.5225 44.8854 56.6503 48.6962C52.9098 53.6562 50.0122 59.9254 48.9488 66.4874H43.9634Z" fill="white"/>
    <path d="M89.513 3.51796C90.4259 2.88245 94.9323 19.2415 91.6152 32.0595C88.298 44.8775 76.487 50.2111 64.1458 47.1146C69.1933 42.204 72.2229 38.4986 76.5499 32.4334C80.877 26.3681 82.7595 18.4985 82.7595 18.4985C79.1933 22.985 74.6358 26.22 70.9767 28.9065C59.6852 37.1967 53.9439 44.6498 53.9439 44.6498C50.6955 30.2796 57.3674 23.8509 66.7561 18.1389C70.386 15.9305 75.9061 13.9751 79.6085 11.5904C85.4823 7.80709 88.953 3.90777 89.513 3.51796Z" fill="#8DC63F"/>
    <path d="M92.5142 27.1316C92.3217 28.8028 92.0294 30.4588 91.6152 32.0595C88.298 44.8775 76.487 50.2111 64.1458 47.1146C66.594 44.7328 68.5674 42.6346 70.4444 40.4131C82.5669 40.2027 90.218 34.4509 92.5142 27.1316Z" fill="#5BAD40"/>
    <path d="M96.6728 49.1136C97.3304 49.1328 95.2751 57.8891 90.089 62.1631C84.9028 66.437 81.5852 66.5225 79.8284 66.7113C78.0715 66.9001 70.0731 66.4808 67.0678 61.2016C71.1953 60.6441 74.9817 60.3614 79.1732 59.0015C83.3647 57.6416 87.1901 54.3476 87.1901 54.3476C83.788 55.2048 78.0113 56.5582 76.8395 56.8467C75.6678 57.1351 65.0879 59.1968 65.0879 59.1968C67.1952 52.9093 73.8346 50.5137 80.3077 51.1032C82.8104 51.3311 87.6897 51.1513 90.1297 50.9028C92.5696 50.6544 96.2694 49.1018 96.6728 49.1136Z" fill="#8DC63F"/>
    <path d="M90.089 62.1631C93.1964 59.6022 95.1798 55.4322 96.1291 52.4965C88.2211 62.404 79.3831 61.8724 75.1559 60.0392C73.2019 60.4289 71.2861 60.6678 69.3219 60.9127C68.579 61.0053 67.8292 61.0987 67.0678 61.2016C70.0731 66.4808 78.0715 66.9001 79.8284 66.7113C79.9344 66.6999 80.0462 66.6889 80.1637 66.6773C81.9926 66.4969 85.2159 66.179 90.089 62.1631Z" fill="#5BAD40"/>
    <path d="M87.1912 54.3475C79.524 52.5921 71.2714 54.5403 66.9787 55.7335C66.1767 56.721 65.5317 57.8726 65.0879 59.1968C65.0879 59.1968 75.6678 57.1351 76.8395 56.8467C77.2024 56.7574 78.0071 56.5658 79.046 56.3186C81.3617 55.7675 84.8428 54.9392 87.1912 54.3475Z" fill="#5BAD40"/>
    <path d="M110.042 51.1121L110.189 10.6763L116.672 10.6998L116.526 51.1356L110.042 51.1121ZM124.923 29.6612L143.44 51.233L135.427 51.204L116.787 29.6318L133.799 10.7618L141.751 10.7906L124.923 29.6612Z" fill="white"/>
    <path d="M166.812 21.2355L173.663 21.2603L158.923 54.7201C157.648 57.5746 156.132 59.6522 154.374 60.9528C152.615 62.2944 150.452 62.9605 147.883 62.9512C146.17 62.945 144.519 62.7348 142.93 62.3205L142.95 56.8678C144.621 57.0373 145.804 57.1232 146.497 57.1258C149.596 57.137 151.783 55.6745 153.058 52.7383L154.291 49.9245L142.407 21.1471L149.318 21.1722L157.864 43.0755L166.812 21.2355Z" fill="white"/>
    <path d="M175.095 36.276C175.029 31.987 176.571 28.2961 179.723 25.2034C182.915 22.0699 186.672 20.5518 190.994 20.6491C195.358 20.5832 199.124 22.1286 202.293 25.2851C205.463 28.4416 206.999 32.1436 206.902 36.3911C206.968 40.6801 205.405 44.3913 202.213 47.5248C199.021 50.6583 195.243 52.1763 190.88 52.0788C186.557 52.1448 182.811 50.5996 179.642 47.443C176.514 44.2458 174.998 40.5235 175.095 36.276ZM200.296 36.4285C200.306 33.6511 199.417 31.3197 197.63 29.4344C195.842 27.5082 193.644 26.5404 191.034 26.5309C188.383 26.5213 186.157 27.4731 184.356 29.3863C182.555 31.2586 181.65 33.5835 181.64 36.3609C181.63 39.1383 182.498 41.4696 184.245 43.3548C186.032 45.1993 188.251 46.1263 190.902 46.1359C193.552 46.1455 195.778 45.2142 197.579 43.3418C199.38 41.4695 200.286 39.165 200.296 36.4285Z" fill="white"/>
    <path d="M211.042 31.2597C210.94 25.5002 212.997 20.5654 217.212 16.4554C221.468 12.3455 226.532 10.342 232.404 10.4449C239.499 10.4706 245.055 13.309 249.072 18.9602L244.348 22.8029C241.346 18.5442 237.337 16.4057 232.321 16.3876C228.08 16.3722 224.588 17.7687 221.846 20.5771C219.145 23.3856 217.786 26.9341 217.77 31.2228C217.755 35.5523 219.128 39.172 221.891 42.082C224.694 44.9513 228.257 46.3937 232.579 46.4094C237.962 46.4289 241.986 44.4012 244.652 40.3264L244.667 35.9765L232.25 35.9315L232.271 30.1725L251.172 30.2409L251.131 41.6365C249.284 44.8974 246.685 47.4816 243.334 49.3892C239.983 51.2967 236.289 52.2432 232.252 52.2286C226.339 52.2889 221.29 50.2692 217.105 46.1696C212.96 42.0292 210.939 37.0593 211.042 31.2597Z" fill="white"/>
    <path d="M274.697 21.6262L274.677 27.3239L272.719 27.3169C270.11 27.3074 267.986 28.0349 266.35 29.4994C264.714 30.9639 263.891 33.0032 263.881 35.6172L263.823 51.669L257.4 51.6457L257.509 21.5639L263.504 21.5856L263.49 25.5067C265.743 22.6966 268.663 21.298 272.252 21.311C273.067 21.3139 273.883 21.419 274.697 21.6262Z" fill="white"/>
    <path d="M305.6 38.8929L283.213 38.8118C283.612 41.2639 284.686 43.208 286.434 44.6439C288.223 46.0391 290.402 46.7413 292.971 46.7506C296.152 46.7621 299.072 45.5882 301.731 43.2288L304.773 47.6511C301.377 50.8655 297.375 52.4644 292.767 52.4477C288.2 52.4312 284.372 50.9265 281.284 47.9336C278.196 44.8999 276.66 41.1571 276.676 36.7051C276.61 32.3753 278.132 28.6639 281.242 25.571C284.353 22.4372 288.029 20.9188 292.269 21.0159C296.225 21.0302 299.523 22.3696 302.164 25.0341C304.805 27.6577 306.119 30.93 306.104 34.8511C306.1 36.0356 305.932 37.3828 305.6 38.8929ZM283.354 33.7884L299.685 33.8476C299.653 31.601 298.905 29.8215 297.441 28.5092C295.978 27.156 294.166 26.4755 292.005 26.4677C289.884 26.46 288.027 27.1272 286.431 28.4693C284.877 29.7707 283.851 31.5438 283.354 33.7884Z" fill="white"/>
    <path d="M339.262 39.0148L316.874 38.9337C317.273 41.3858 318.347 43.3299 320.095 44.7658C321.884 46.161 324.063 46.8632 326.632 46.8725C329.813 46.884 332.733 45.7101 335.392 43.3507L338.435 47.773C335.038 50.9874 331.036 52.5863 326.428 52.5696C321.861 52.5531 318.033 51.0484 314.945 48.0555C311.857 45.0218 310.321 41.279 310.337 36.827C310.271 32.4972 311.793 28.7858 314.904 25.6929C318.014 22.5591 321.69 21.0407 325.93 21.1378C329.886 21.1521 333.184 22.4915 335.825 25.156C338.466 27.7796 339.78 31.0519 339.766 34.973C339.761 36.1575 339.593 37.5047 339.262 39.0148ZM317.015 33.9103L333.347 33.9695C333.314 31.7229 332.566 29.9434 331.103 28.6311C329.639 27.2779 327.827 26.5974 325.666 26.5896C323.546 26.5819 321.688 27.2491 320.092 28.5912C318.538 29.8926 317.512 31.6657 317.015 33.9103Z" fill="white"/>
    <path d="M372.149 33.2522L372.081 52.061L365.658 52.0377L365.723 34.0867C365.731 32.0036 365.125 30.3268 363.906 29.0562C362.729 27.7449 361.161 27.0857 359.204 27.0786C357.205 27.0714 355.552 27.7189 354.242 29.0212C352.973 30.3237 352.335 31.996 352.328 34.0382L352.263 51.9892L345.84 51.966L345.949 21.8842L351.943 21.9059L351.933 24.8467C354.225 22.4451 357.227 21.2511 360.937 21.2645C364.404 21.2771 367.132 22.3693 369.122 24.5413C371.153 26.7135 372.162 29.6171 372.149 33.2522Z" fill="white"/>
    <g clip-path="url(#clip0_7466_37665)">
    <path d="M233.119 77.4209C233.119 77.4209 233.119 77.4208 233.118 77.4207L228.952 75.0158C228.86 74.9627 228.747 74.9627 228.655 75.0158L224.488 77.4207C224.394 77.4756 224.339 77.5759 224.339 77.679V82.4491C224.339 82.5557 224.396 82.6541 224.488 82.7074L228.654 85.112L228.655 85.1123C228.747 85.1652 228.86 85.1653 228.952 85.1123L228.952 85.1121L233.118 82.7074C233.211 82.6541 233.267 82.5556 233.267 82.449V77.679C233.267 77.4836 233.09 77.4041 233.119 77.4209ZM228.506 84.3381L224.935 82.2768V78.1927L228.506 80.237V84.3381ZM228.803 79.7207L225.235 77.6779L228.803 75.6182L232.372 77.6779L228.803 79.7207ZM232.672 82.2767L229.101 84.3381V80.237L232.672 78.1927L232.672 82.2767Z" fill="url(#paint0_linear_7466_37665)"/>
    <path d="M222.367 77.4209C222.367 77.4209 222.367 77.4208 222.366 77.4207L218.2 75.0158C218.108 74.9627 217.995 74.9627 217.903 75.0158L213.736 77.4207C213.642 77.4756 213.587 77.5759 213.587 77.679V82.4491C213.587 82.5557 213.644 82.6541 213.736 82.7074L217.902 85.112L217.903 85.1123C217.995 85.1652 218.108 85.1653 218.2 85.1123L218.2 85.1121L222.366 82.7074C222.459 82.6541 222.515 82.5556 222.515 82.449V77.679C222.515 77.4836 222.338 77.4041 222.367 77.4209ZM217.754 84.3381L214.183 82.2768V78.1927L217.754 80.237V84.3381ZM218.051 79.7207L214.483 77.6779L218.051 75.6182L221.62 77.6779L218.051 79.7207ZM221.92 82.2767L218.349 84.3381V80.237L221.92 78.1927L221.92 82.2767Z" fill="url(#paint1_linear_7466_37665)"/>
    <path d="M227.743 74.4449C227.743 74.4449 227.743 74.4448 227.742 74.4447L223.576 72.0398C223.484 71.9867 223.371 71.9867 223.279 72.0398L219.112 74.4447C219.018 74.4996 218.963 74.5999 218.963 74.703V79.4731C218.963 79.5797 219.02 79.6781 219.112 79.7314L223.278 82.136L223.279 82.1363C223.371 82.1892 223.484 82.1893 223.576 82.1363L223.576 82.1361L227.742 79.7314C227.835 79.6781 227.891 79.5796 227.891 79.473V74.703C227.891 74.5076 227.714 74.4281 227.743 74.4449ZM223.13 81.3621L219.559 79.3008V75.2167L223.13 77.261V81.3621ZM223.427 76.7447L219.859 74.7019L223.427 72.6422L226.996 74.7019L223.427 76.7447ZM227.296 79.3007L223.725 81.3621V77.261L227.296 75.2167L227.296 79.3007Z" fill="url(#paint2_linear_7466_37665)"/>
    <path d="M227.743 80.8769C227.743 80.8769 227.743 80.8768 227.742 80.8767L223.576 78.4718C223.484 78.4187 223.371 78.4187 223.279 78.4718L219.112 80.8767C219.018 80.9316 218.963 81.0319 218.963 81.135V85.9051C218.963 86.0117 219.02 86.1101 219.112 86.1634L223.278 88.568L223.279 88.5683C223.371 88.6212 223.484 88.6213 223.576 88.5683L223.576 88.5681L227.742 86.1634C227.835 86.1101 227.891 86.0116 227.891 85.905V81.135C227.891 80.9396 227.714 80.8601 227.743 80.8769ZM223.13 87.7941L219.559 85.7328V81.6487L223.13 83.693V87.7941ZM223.427 83.1767L219.859 81.1339L223.427 79.0742L226.996 81.1339L223.427 83.1767ZM227.296 85.7327L223.725 87.7941V83.693L227.296 81.6487L227.296 85.7327Z" fill="url(#paint3_linear_7466_37665)"/>
    <path d="M227.743 87.3089C227.743 87.3089 227.743 87.3088 227.742 87.3087L223.576 84.9038C223.484 84.8507 223.371 84.8507 223.279 84.9038L219.112 87.3087C219.018 87.3636 218.963 87.4639 218.963 87.567V92.3371C218.963 92.4437 219.02 92.5421 219.112 92.5954L223.278 95L223.279 95.0003C223.371 95.0532 223.484 95.0533 223.576 95.0003L223.576 95.0001L227.742 92.5954C227.835 92.5421 227.891 92.4436 227.891 92.337V87.567C227.891 87.3716 227.714 87.2921 227.743 87.3089ZM223.13 94.2261L219.559 92.1648V88.0807L223.13 90.125V94.2261ZM223.427 89.6087L219.859 87.5659L223.427 85.5062L226.996 87.5659L223.427 89.6087ZM227.296 92.1647L223.725 94.2261V90.125L227.296 88.0807L227.296 92.1647Z" fill="url(#paint4_linear_7466_37665)"/>
    <path d="M222.367 84.3329C222.367 84.3329 222.367 84.3328 222.366 84.3327L218.2 81.9278C218.108 81.8747 217.995 81.8747 217.903 81.9278L213.736 84.3327C213.642 84.3876 213.587 84.4879 213.587 84.591V89.3611C213.587 89.4677 213.644 89.5661 213.736 89.6194L217.902 92.024L217.903 92.0243C217.995 92.0772 218.108 92.0773 218.2 92.0243L218.2 92.0241L222.366 89.6194C222.459 89.5661 222.515 89.4676 222.515 89.361V84.591C222.515 84.3956 222.338 84.3161 222.367 84.3329ZM217.754 91.2501L214.183 89.1888V85.1047L217.754 87.149V91.2501ZM218.051 86.6327L214.483 84.5899L218.051 82.5302L221.62 84.5899L218.051 86.6327ZM221.92 89.1887L218.349 91.2501V87.149L221.92 85.1047L221.92 89.1887Z" fill="url(#paint5_linear_7466_37665)"/>
    <path d="M233.119 84.3329C233.119 84.3329 233.119 84.3328 233.118 84.3327L228.952 81.9278C228.86 81.8747 228.747 81.8747 228.655 81.9278L224.488 84.3327C224.394 84.3876 224.339 84.4879 224.339 84.591V89.3611C224.339 89.4677 224.396 89.5661 224.488 89.6194L228.654 92.024L228.655 92.0243C228.747 92.0772 228.86 92.0773 228.952 92.0243L228.952 92.0241L233.118 89.6194C233.211 89.5661 233.267 89.4676 233.267 89.361V84.591C233.267 84.3956 233.09 84.3161 233.119 84.3329ZM228.506 91.2501L224.935 89.1888V85.1047L228.506 87.149V91.2501ZM228.803 86.6327L225.235 84.5899L228.803 82.5302L232.372 84.5899L228.803 86.6327ZM232.672 89.1887L229.101 91.2501V87.149L232.672 85.1047L232.672 89.1887Z" fill="url(#paint6_linear_7466_37665)"/>
    </g>
    <path d="M114.644 76.2485C115.832 76.2485 116.822 76.6445 117.614 77.4365C118.418 78.2285 118.82 79.2125 118.82 80.3885C118.82 81.5525 118.418 82.5365 117.614 83.3405C116.822 84.1325 115.832 84.5285 114.644 84.5285H112.07V88.8485H110V76.2485H114.644ZM114.644 82.5845C115.256 82.5845 115.76 82.3805 116.156 81.9725C116.552 81.5525 116.75 81.0245 116.75 80.3885C116.75 79.7525 116.552 79.2305 116.156 78.8225C115.76 78.4025 115.256 78.1925 114.644 78.1925H112.07V82.5845H114.644Z" fill="white"/>
    <path d="M128.066 79.8485H130.01V88.8485H128.066V87.5525C127.334 88.5725 126.284 89.0825 124.916 89.0825C123.68 89.0825 122.624 88.6265 121.748 87.7145C120.872 86.7905 120.434 85.6685 120.434 84.3485C120.434 83.0165 120.872 81.8945 121.748 80.9825C122.624 80.0705 123.68 79.6145 124.916 79.6145C126.284 79.6145 127.334 80.1185 128.066 81.1265V79.8485ZM123.188 86.4185C123.728 86.9585 124.406 87.2285 125.222 87.2285C126.038 87.2285 126.716 86.9585 127.256 86.4185C127.796 85.8665 128.066 85.1765 128.066 84.3485C128.066 83.5205 127.796 82.8365 127.256 82.2965C126.716 81.7445 126.038 81.4685 125.222 81.4685C124.406 81.4685 123.728 81.7445 123.188 82.2965C122.648 82.8365 122.378 83.5205 122.378 84.3485C122.378 85.1765 122.648 85.8665 123.188 86.4185Z" fill="white"/>
    <path d="M135.3 81.3605C135.792 80.2445 136.716 79.6865 138.072 79.6865V81.7925C137.328 81.7445 136.68 81.9245 136.128 82.3325C135.576 82.7285 135.3 83.3885 135.3 84.3125V88.8485H133.356V79.8485H135.3V81.3605Z" fill="white"/>
    <path d="M145.839 81.7205H143.607V86.0405C143.607 86.4125 143.691 86.6825 143.859 86.8505C144.027 87.0065 144.273 87.0965 144.597 87.1205C144.933 87.1325 145.347 87.1265 145.839 87.1025V88.8485C144.351 89.0285 143.283 88.9025 142.635 88.4705C141.987 88.0265 141.663 87.2165 141.663 86.0405V81.7205H140.007V79.8485H141.663V77.9045L143.607 77.3285V79.8485H145.839V81.7205Z" fill="white"/>
    <path d="M158.598 89.0825C157.278 89.0825 156.156 88.6265 155.232 87.7145C154.308 86.8025 153.846 85.6805 153.846 84.3485C153.846 83.0165 154.308 81.8945 155.232 80.9825C156.156 80.0705 157.278 79.6145 158.598 79.6145C159.93 79.6145 161.052 80.0705 161.964 80.9825C162.888 81.8945 163.35 83.0165 163.35 84.3485C163.35 85.6805 162.888 86.8025 161.964 87.7145C161.052 88.6265 159.93 89.0825 158.598 89.0825ZM156.6 86.3825C157.14 86.9225 157.806 87.1925 158.598 87.1925C159.39 87.1925 160.056 86.9225 160.596 86.3825C161.136 85.8425 161.406 85.1645 161.406 84.3485C161.406 83.5325 161.136 82.8545 160.596 82.3145C160.056 81.7745 159.39 81.5045 158.598 81.5045C157.806 81.5045 157.14 81.7745 156.6 82.3145C156.06 82.8545 155.79 83.5325 155.79 84.3485C155.79 85.1645 156.06 85.8425 156.6 86.3825Z" fill="white"/>
    <path d="M170.588 77.8865C169.172 77.7545 168.464 78.3485 168.464 79.6685V79.8485H170.588V81.7205H168.464V88.8485H166.52V81.7205H165.152V79.8485H166.52V79.6685C166.52 78.4325 166.862 77.4965 167.546 76.8605C168.242 76.2125 169.256 75.9305 170.588 76.0145V77.8865Z" fill="white"/>
    <path d="M183.407 81.7205H181.175V86.0405C181.175 86.4125 181.259 86.6825 181.427 86.8505C181.595 87.0065 181.841 87.0965 182.165 87.1205C182.501 87.1325 182.915 87.1265 183.407 87.1025V88.8485C181.919 89.0285 180.851 88.9025 180.203 88.4705C179.555 88.0265 179.231 87.2165 179.231 86.0405V81.7205H177.575V79.8485H179.231V77.9045L181.175 77.3285V79.8485H183.407V81.7205Z" fill="white"/>
    <path d="M190.984 79.6145C192.016 79.6145 192.85 79.9445 193.486 80.6045C194.122 81.2645 194.44 82.1705 194.44 83.3225V88.8485H192.496V83.5205C192.496 82.8485 192.316 82.3325 191.956 81.9725C191.596 81.6125 191.104 81.4325 190.48 81.4325C189.796 81.4325 189.244 81.6485 188.824 82.0805C188.404 82.5005 188.194 83.1485 188.194 84.0245V88.8485H186.25V76.2485H188.194V81.0005C188.782 80.0765 189.712 79.6145 190.984 79.6145Z" fill="white"/>
    <path d="M199.143 85.1765C199.287 85.8605 199.617 86.3885 200.133 86.7605C200.649 87.1205 201.279 87.3005 202.023 87.3005C203.055 87.3005 203.829 86.9285 204.345 86.1845L205.947 87.1205C205.059 88.4285 203.745 89.0825 202.005 89.0825C200.541 89.0825 199.359 88.6385 198.459 87.7505C197.559 86.8505 197.109 85.7165 197.109 84.3485C197.109 83.0045 197.553 81.8825 198.441 80.9825C199.329 80.0705 200.469 79.6145 201.861 79.6145C203.181 79.6145 204.261 80.0765 205.101 81.0005C205.953 81.9245 206.379 83.0465 206.379 84.3665C206.379 84.5705 206.355 84.8405 206.307 85.1765H199.143ZM199.125 83.5925H204.417C204.285 82.8605 203.979 82.3085 203.499 81.9365C203.031 81.5645 202.479 81.3785 201.843 81.3785C201.123 81.3785 200.523 81.5765 200.043 81.9725C199.563 82.3685 199.257 82.9085 199.125 83.5925Z" fill="white"/>
    <path d="M249.883 89H247.417L242.449 83.006V89H240.379V76.4H242.449V82.052L247.237 76.4H249.703L244.609 82.538L249.883 89Z" fill="white"/>
    <path d="M257.349 80H259.419L255.963 89.288C255.099 91.616 253.635 92.72 251.571 92.6V90.782C252.183 90.818 252.675 90.686 253.047 90.386C253.419 90.098 253.725 89.642 253.965 89.018L254.055 88.838L250.239 80H252.363L255.045 86.534L257.349 80Z" fill="white"/>
    <path d="M265.611 89.234C264.291 89.234 263.169 88.778 262.245 87.866C261.321 86.954 260.859 85.832 260.859 84.5C260.859 83.168 261.321 82.046 262.245 81.134C263.169 80.222 264.291 79.766 265.611 79.766C266.943 79.766 268.065 80.222 268.977 81.134C269.901 82.046 270.363 83.168 270.363 84.5C270.363 85.832 269.901 86.954 268.977 87.866C268.065 88.778 266.943 89.234 265.611 89.234ZM263.613 86.534C264.153 87.074 264.819 87.344 265.611 87.344C266.403 87.344 267.069 87.074 267.609 86.534C268.149 85.994 268.419 85.316 268.419 84.5C268.419 83.684 268.149 83.006 267.609 82.466C267.069 81.926 266.403 81.656 265.611 81.656C264.819 81.656 264.153 81.926 263.613 82.466C263.073 83.006 262.803 83.684 262.803 84.5C262.803 85.316 263.073 85.994 263.613 86.534Z" fill="white"/>
    <path d="M278.047 81.872H275.815V86.192C275.815 86.564 275.899 86.834 276.067 87.002C276.235 87.158 276.481 87.248 276.805 87.272C277.141 87.284 277.555 87.278 278.047 87.254V89C276.559 89.18 275.491 89.054 274.843 88.622C274.195 88.178 273.871 87.368 273.871 86.192V81.872H272.215V80H273.871V78.056L275.815 77.48V80H278.047V81.872Z" fill="white"/>
    <path d="M284.769 89.234C283.449 89.234 282.327 88.778 281.403 87.866C280.479 86.954 280.017 85.832 280.017 84.5C280.017 83.168 280.479 82.046 281.403 81.134C282.327 80.222 283.449 79.766 284.769 79.766C286.101 79.766 287.223 80.222 288.135 81.134C289.059 82.046 289.521 83.168 289.521 84.5C289.521 85.832 289.059 86.954 288.135 87.866C287.223 88.778 286.101 89.234 284.769 89.234ZM282.771 86.534C283.311 87.074 283.977 87.344 284.769 87.344C285.561 87.344 286.227 87.074 286.767 86.534C287.307 85.994 287.577 85.316 287.577 84.5C287.577 83.684 287.307 83.006 286.767 82.466C286.227 81.926 285.561 81.656 284.769 81.656C283.977 81.656 283.311 81.926 282.771 82.466C282.231 83.006 281.961 83.684 281.961 84.5C281.961 85.316 282.231 85.994 282.771 86.534Z" fill="white"/>
    <path d="M305.624 76.4H307.694V89H306.074L300.134 80.45V89H298.064V76.4H299.684L305.624 84.95V76.4Z" fill="white"/>
    <path d="M312.695 85.328C312.839 86.012 313.169 86.54 313.685 86.912C314.201 87.272 314.831 87.452 315.575 87.452C316.607 87.452 317.381 87.08 317.897 86.336L319.499 87.272C318.611 88.58 317.297 89.234 315.557 89.234C314.093 89.234 312.911 88.79 312.011 87.902C311.111 87.002 310.661 85.868 310.661 84.5C310.661 83.156 311.105 82.034 311.993 81.134C312.881 80.222 314.021 79.766 315.413 79.766C316.733 79.766 317.813 80.228 318.653 81.152C319.505 82.076 319.931 83.198 319.931 84.518C319.931 84.722 319.907 84.992 319.859 85.328H312.695ZM312.677 83.744H317.969C317.837 83.012 317.531 82.46 317.051 82.088C316.583 81.716 316.031 81.53 315.395 81.53C314.675 81.53 314.075 81.728 313.595 82.124C313.115 82.52 312.809 83.06 312.677 83.744Z" fill="white"/>
    <path d="M327.462 81.872H325.23V86.192C325.23 86.564 325.314 86.834 325.482 87.002C325.65 87.158 325.896 87.248 326.22 87.272C326.556 87.284 326.97 87.278 327.462 87.254V89C325.974 89.18 324.906 89.054 324.258 88.622C323.61 88.178 323.286 87.368 323.286 86.192V81.872H321.63V80H323.286V78.056L325.23 77.48V80H327.462V81.872Z" fill="white"/>
    <path d="M340.761 80H342.813L339.987 89H338.079L336.207 82.934L334.317 89H332.409L329.583 80H331.635L333.381 86.21L335.271 80H337.125L338.997 86.21L340.761 80Z" fill="white"/>
    <path d="M349.221 89.234C347.901 89.234 346.779 88.778 345.855 87.866C344.931 86.954 344.469 85.832 344.469 84.5C344.469 83.168 344.931 82.046 345.855 81.134C346.779 80.222 347.901 79.766 349.221 79.766C350.553 79.766 351.675 80.222 352.587 81.134C353.511 82.046 353.973 83.168 353.973 84.5C353.973 85.832 353.511 86.954 352.587 87.866C351.675 88.778 350.553 89.234 349.221 89.234ZM347.223 86.534C347.763 87.074 348.429 87.344 349.221 87.344C350.013 87.344 350.679 87.074 351.219 86.534C351.759 85.994 352.029 85.316 352.029 84.5C352.029 83.684 351.759 83.006 351.219 82.466C350.679 81.926 350.013 81.656 349.221 81.656C348.429 81.656 347.763 81.926 347.223 82.466C346.683 83.006 346.413 83.684 346.413 84.5C346.413 85.316 346.683 85.994 347.223 86.534Z" fill="white"/>
    <path d="M358.755 81.512C359.247 80.396 360.171 79.838 361.527 79.838V81.944C360.783 81.896 360.135 82.076 359.583 82.484C359.031 82.88 358.755 83.54 358.755 84.464V89H356.811V80H358.755V81.512Z" fill="white"/>
    <path d="M371.999 89H369.677L365.987 84.842V89H364.043V76.4H365.987V83.978L369.479 80H371.855L367.895 84.41L371.999 89Z" fill="white"/>
    <defs>
    <linearGradient id="paint0_linear_7466_37665" x1="223.427" y1="72" x2="223.427" y2="95.04" gradientUnits="userSpaceOnUse">
    <stop stop-color="#71BF44"/>
    <stop offset="1" stop-color="#13763B"/>
    </linearGradient>
    <linearGradient id="paint1_linear_7466_37665" x1="223.427" y1="72" x2="223.427" y2="95.04" gradientUnits="userSpaceOnUse">
    <stop stop-color="#71BF44"/>
    <stop offset="1" stop-color="#13763B"/>
    </linearGradient>
    <linearGradient id="paint2_linear_7466_37665" x1="223.427" y1="72" x2="223.427" y2="95.04" gradientUnits="userSpaceOnUse">
    <stop stop-color="#71BF44"/>
    <stop offset="1" stop-color="#13763B"/>
    </linearGradient>
    <linearGradient id="paint3_linear_7466_37665" x1="223.427" y1="72" x2="223.427" y2="95.04" gradientUnits="userSpaceOnUse">
    <stop stop-color="#71BF44"/>
    <stop offset="1" stop-color="#13763B"/>
    </linearGradient>
    <linearGradient id="paint4_linear_7466_37665" x1="223.427" y1="72" x2="223.427" y2="95.04" gradientUnits="userSpaceOnUse">
    <stop stop-color="#71BF44"/>
    <stop offset="1" stop-color="#13763B"/>
    </linearGradient>
    <linearGradient id="paint5_linear_7466_37665" x1="223.427" y1="72" x2="223.427" y2="95.04" gradientUnits="userSpaceOnUse">
    <stop stop-color="#71BF44"/>
    <stop offset="1" stop-color="#13763B"/>
    </linearGradient>
    <linearGradient id="paint6_linear_7466_37665" x1="223.427" y1="72" x2="223.427" y2="95.04" gradientUnits="userSpaceOnUse">
    <stop stop-color="#71BF44"/>
    <stop offset="1" stop-color="#13763B"/>
    </linearGradient>
    <clipPath id="clip0_7466_37665">
    <rect width="24" height="24" fill="white" transform="translate(211.379 72)"/>
    </clipPath>
    </defs>
    </svg>
    